<?xml version="1.0" standalone="no"?>
<!DOCTYPE svg PUBLIC "-//W3C//DTD SVG 20010904//EN"
 "http://www.w3.org/TR/2001/REC-SVG-20010904/DTD/svg10.dtd">
<svg version="1.0" xmlns="http://www.w3.org/2000/svg"
 width="200.000000pt" height="200.000000pt" viewBox="0 0 200.000000 200.000000"
 preserveAspectRatio="xMidYMid meet">
<metadata>
Created by potrace 1.14, written by Peter Selinger 2001-2017
</metadata>
<g transform="translate(0.000000,200.000000) scale(0.100000,-0.100000)"
fill="#000000" stroke="none">
<path d="M944 1705 c-29 -44 1 -104 52 -105 33 0 67 32 67 63 0 64 -85 93
-119 42z"/>
<path d="M1230 1678 c-31 -11 -40 -25 -40 -65 0 -57 65 -83 108 -43 25 24 28
57 7 87 -18 26 -43 33 -75 21z"/>
<path d="M695 1660 c-38 -42 -9 -110 47 -110 35 0 68 32 68 65 0 56 -77 86
-115 45z"/>
<path d="M500 1527 c-27 -14 -46 -56 -37 -80 3 -9 17 -23 30 -32 57 -37 122
26 91 87 -8 16 -19 28 -23 28 -5 0 -15 2 -23 5 -7 3 -24 -1 -38 -8z"/>
<path d="M1421 1514 c-24 -31 -25 -35 -10 -68 14 -31 58 -48 85 -33 47 26 53
77 13 110 -31 25 -64 21 -88 -9z"/>
<path d="M1600 1322 c-51 -16 -66 -76 -28 -112 43 -40 108 -11 108 48 0 40
-44 76 -80 64z"/>
<path d="M331 1289 c-30 -49 -2 -99 55 -99 58 0 84 65 44 108 -32 34 -76 29
-99 -9z"/>
<path d="M302 1057 c-46 -21 -39 -104 11 -121 57 -21 109 55 70 102 -22 27
-50 33 -81 19z"/>
<path d="M1621 1049 c-49 -46 1 -133 64 -109 36 14 45 26 45 67 0 57 -65 83
-109 42z"/>
<path d="M340 790 c-39 -39 -19 -99 39 -113 30 -7 71 32 71 68 0 32 -33 65
-65 65 -14 0 -34 -9 -45 -20z"/>
<path d="M1570 790 c-58 -58 20 -142 88 -94 28 19 30 74 4 97 -25 23 -68 21
-92 -3z"/>
<path d="M510 590 c-14 -3 -31 -18 -38 -33 -36 -75 68 -132 113 -63 14 21 14
28 2 59 -16 37 -37 47 -77 37z"/>
<path d="M1438 584 c-55 -29 -29 -124 34 -124 10 0 30 11 44 26 55 54 -10 135
-78 98z"/>
<path d="M700 430 c-41 -41 -13 -110 44 -110 19 0 40 8 49 18 37 41 6 112 -48
112 -14 0 -34 -9 -45 -20z"/>
<path d="M1210 430 c-41 -41 -13 -110 44 -110 19 0 40 8 49 18 37 41 6 112
-48 112 -14 0 -34 -9 -45 -20z"/>
<path d="M968 389 c-29 -17 -39 -44 -27 -77 20 -58 95 -59 119 -2 25 60 -36
112 -92 79z"/>
</g>
</svg>
